<?xml version="1.0" standalone="no"?><!DOCTYPE svg PUBLIC "-//W3C//DTD SVG 1.1//EN" "http://www.w3.org/Graphics/SVG/1.1/DTD/svg11.dtd"><svg t="1497595348851" class="icon" style="" viewBox="0 0 1024 1024" version="1.1" xmlns="http://www.w3.org/2000/svg" p-id="3379" xmlns:xlink="http://www.w3.org/1999/xlink" width="200" height="200"><defs><style type="text/css"></style></defs><path d="M512.37888 160.10752l240.57856 292.89472h0.86528l4.7104-292.89472h-246.15424z" fill="#44BBFC" p-id="3380"></path><path d="M511.51872 159.05792L269.57824 454.05184h484.23936L511.51872 159.05792z" fill="#08A7FF" p-id="3381"></path><path d="M958.70976 421.73952l-204.88704 32.31232-242.36032 408.78592-241.88416-408.78592-204.288-32.31232 200.17152-260.5824 4.11648 292.89984h484.23936l2.79552-294.99392 202.09664 262.67648z" fill="#0099FF" p-id="3382"></path><path d="M510.4128 864.94208l0.34816-3.2768-241.18272-407.61344-204.288-32.31232 445.12256 443.20256z m243.40992-410.89024l-240.6912 405.98016 0.45568 4.1984 445.12768-442.49088-204.89216 32.31232z" fill="#75D2FC" p-id="3383"></path><path d="M270.44352 453.00224l240.22016-292.89472h-245.1968l4.11648 292.89472h0.86016z" fill="#44BBFC" p-id="3384"></path></svg>