<?xml version="1.0" standalone="no"?><!DOCTYPE svg PUBLIC "-//W3C//DTD SVG 1.1//EN" "http://www.w3.org/Graphics/SVG/1.1/DTD/svg11.dtd"><svg t="1497406719191" class="icon" style="" viewBox="0 0 1024 1024" version="1.1" xmlns="http://www.w3.org/2000/svg" p-id="5957" xmlns:xlink="http://www.w3.org/1999/xlink" width="200" height="200"><defs><style type="text/css"></style></defs><path d="M896.950974 258.678854C908.733037 258.69501 918.297385 249.156858 918.31354 237.374795 918.329696 225.592732 908.791543 216.028384 897.009481 216.012228L133.038771 214.964623C121.256708 214.948467 111.692361 224.48662 111.676205 236.268683 111.660048 248.050746 121.198201 257.615093 132.980264 257.631249L896.950974 258.678854Z" p-id="5958"></path><path d="M253.296026 891.74896 253.296026 913.302795 274.848719 913.081165 783.773175 907.847842 804.887147 907.630726 804.887147 886.515637 804.887147 323.399234C804.887147 311.617158 795.335889 302.065901 783.553813 302.065901 771.77174 302.065901 762.22048 311.617158 762.22048 323.399234L762.22048 886.515637 783.334453 865.183433 274.409997 870.416753 295.962692 891.74896 295.962692 317.960181C295.962692 306.178108 286.411433 296.626848 274.629359 296.626848 262.847283 296.626848 253.296026 306.178108 253.296026 317.960181L253.296026 891.74896Z" p-id="5959"></path><path d="M640 774.290844C640 786.072919 649.55126 795.624177 661.333333 795.624177 673.115407 795.624177 682.666667 786.072919 682.666667 774.290844L682.666667 390.290844C682.666667 378.50877 673.115407 368.95751 661.333333 368.95751 649.55126 368.95751 640 378.50877 640 390.290844L640 774.290844Z" p-id="5960"></path><path d="M384 774.290844C384 786.072919 393.55126 795.624177 405.333333 795.624177 417.115407 795.624177 426.666667 786.072919 426.666667 774.290844L426.666667 390.290844C426.666667 378.50877 417.115407 368.95751 405.333333 368.95751 393.55126 368.95751 384 378.50877 384 390.290844L384 774.290844Z" p-id="5961"></path><path d="M512 774.290844C512 786.072919 521.55126 795.624177 533.333333 795.624177 545.115407 795.624177 554.666667 786.072919 554.666667 774.290844L554.666667 390.290844C554.666667 378.50877 545.115407 368.95751 533.333333 368.95751 521.55126 368.95751 512 378.50877 512 390.290844L512 774.290844Z" p-id="5962"></path><path d="M425.286718 183.789238C425.286718 171.938002 434.72058 162.478296 446.617756 162.478296L612.793875 162.478296C624.561436 162.478296 634.124915 172.017422 634.124915 183.650019L634.124915 228.195147 676.791582 228.195147 676.791582 183.650019C676.791582 148.428888 648.101269 119.811629 612.793875 119.811629L446.617756 119.811629C411.130263 119.811629 382.620051 148.399941 382.620051 183.789238L382.620051 223.073982 425.286718 223.073982 425.286718 183.789238Z" p-id="5963"></path></svg>