<?xml version="1.0" standalone="no"?><!DOCTYPE svg PUBLIC "-//W3C//DTD SVG 1.1//EN" "http://www.w3.org/Graphics/SVG/1.1/DTD/svg11.dtd"><svg t="1497428164331" class="icon" style="" viewBox="0 0 1024 1024" version="1.1" xmlns="http://www.w3.org/2000/svg" p-id="4278" xmlns:xlink="http://www.w3.org/1999/xlink" width="200" height="200"><defs><style type="text/css"></style></defs><path d="M 511.998 2.621 c -281.323 0 -509.376 228.054 -509.376 509.376 c 0 281.327 228.054 509.382 509.376 509.382 c 281.327 0 509.382 -228.054 509.382 -509.382 c -0.001 -281.322 -228.055 -509.376 -509.382 -509.376 v 0 Z M 680.153 575.71 c 22.603 0 41.109 18.506 41.109 41.11 s -18.505 41.11 -41.109 41.11 h -127.045 v 105.964 c 0 22.603 -18.5 41.11 -41.109 41.11 c -22.603 0 -41.106 -18.506 -41.106 -41.11 v -105.964 h -126.954 c -22.603 0 -41.106 -18.506 -41.106 -41.11 s 18.501 -41.11 41.106 -41.11 h 127.049 v -60.756 h -127.049 c -22.603 0 -41.106 -18.501 -41.106 -41.106 c 0 -22.609 18.501 -41.109 41.106 -41.109 h 91.279 l -110.354 -128.669 c -14.685 -17.165 -12.684 -43.206 4.485 -57.892 v 0 c 17.169 -14.69 43.206 -12.688 57.895 4.481 l 124.848 145.551 l 124.852 -145.551 c 14.69 -17.169 40.727 -19.17 57.897 -4.481 v 0 c 17.169 14.687 19.17 40.727 4.479 57.892 l -110.352 128.669 h 91.279 c 22.603 0 41.109 18.5 41.109 41.109 c 0 22.603 -18.505 41.106 -41.109 41.106 h -127.141 v 60.756 h 127.045 Z M 680.153 575.71 Z" p-id="4279"></path></svg>