<?xml version="1.0" standalone="no"?><!DOCTYPE svg PUBLIC "-//W3C//DTD SVG 1.1//EN" "http://www.w3.org/Graphics/SVG/1.1/DTD/svg11.dtd"><svg t="1497427972274" class="icon" style="" viewBox="0 0 1024 1024" version="1.1" xmlns="http://www.w3.org/2000/svg" p-id="3605" xmlns:xlink="http://www.w3.org/1999/xlink" width="200" height="200"><defs><style type="text/css"></style></defs><path d="M566.239 45.542C313.744 17.825 86.617 199.979 58.9 452.509 31.195 704.958 213.404 932.068 465.894 959.778c252.494 27.71 479.584-154.48 507.294-406.919 11.38-103.642-13.47-202.397-63.16-285.502-3.25-3.53-7.56-6.09-12.69-6.645-11.17-1.233-21.21 6.81-22.44 17.99-0.64 5.817 1.05 11.252 4.54 15.435l-0.01 0.18c42.95 74.172 63.93 161.952 53.86 253.702-25.08 228.579-230.809 393.609-459.399 368.519-228.637-25.09-393.681-230.814-368.597-459.391C130.39 228.489 336.104 63.537 564.754 88.635c69.835 7.657 133.745 31.242 188.14 68.117l0.335 0.04c1.86 0.783 3.65 1.612 5.695 1.848 11.205 1.222 21.28-6.892 22.51-18.03 0.955-8.767-3.83-16.665-11.23-20.377l0.155 0.012C710.988 80.835 641.908 53.842 566.239 45.542z" p-id="3606"></path><path d="M522.344 476.334 251.229 476.334 522.344 476.334Z" p-id="3607"></path><path d="M755.498 449.694l0 147.565-1.49 0c-3.93 65.015-114.3 115.295-231.139 115.295-116.897 0-208.787-50.335-212.592-115.295l-1.462 0L308.815 449.694c-1.122-5.17 0.045-10.382 0.045-15.762 0-68.67 92.915-122.49 214.019-122.49 121.1 0 232.569 53.82 232.569 122.49C755.448 439.311 756.608 444.524 755.498 449.694zM522.869 347.274c-104.967 0-183.672 47.142-183.672 86.657 0 39.512 78.705 83.552 183.672 83.552 104.99 0 202.629-44.04 202.629-83.552C725.498 394.417 627.858 347.274 522.869 347.274zM727.378 499.324c-38.35 32.77-128.48 55.02-204.509 55.02-76.027 0-147.2-22.25-185.57-55.02l0 24.285c10.107 42.31 95.43 79.19 185.57 79.19 90.18 0 194.46-36.91 204.509-79.22L727.378 499.324zM727.378 577.444c-37.4 33.32-118.66 56.565-204.509 56.565-83.5 0-148.155-23.245-185.57-56.49l0 19.065c10.107 42.275 85.7 81.245 185.57 81.245 97.63 0 194.46-38.97 204.509-81.275L727.378 577.444z" p-id="3608"></path></svg>