<?xml version="1.0" standalone="no"?><!DOCTYPE svg PUBLIC "-//W3C//DTD SVG 1.1//EN" "http://www.w3.org/Graphics/SVG/1.1/DTD/svg11.dtd"><svg t="1497664470773" class="icon" style="" viewBox="0 0 1024 1024" version="1.1" xmlns="http://www.w3.org/2000/svg" p-id="1564" xmlns:xlink="http://www.w3.org/1999/xlink" width="200" height="200"><defs><style type="text/css"></style></defs><path d="M64.816215 750.578724" p-id="1565"></path><path d="M757.327428 265.935792 519.30129 397.983223 286.678208 262.504646c-9.370415 8.241708-14.459317 21.853727-14.459317 26.441209l0 418.353157c0 16.570397 21.339004 37.195134 37.908378 37.195134l418.353157 0c16.567327 0 37.192064-20.624736 37.192064-37.195134L765.67249 288.946878C765.67249 287.47127 764.15595 269.923616 757.327428 265.935792zM593.036641 596.162842c7.130398 0 12.907984 5.77861 12.907984 12.919241 0 7.116071-5.777587 12.922311-12.907984 12.922311l0 0.106424-59.667961-0.007163 0 30.391171-0.057305 0c0 7.116071-5.78475 12.894681-12.916171 12.894681s-12.916171-5.77861-12.916171-12.894681l-0.061398 0 0-30.391171-61.496609-0.048095 0-0.051165c-7.126304 0-12.907984-5.78168-12.907984-12.922311 0-7.117095 5.780657-12.922311 12.907984-12.922311l61.496609-0.00307 0-26.208918-61.488423-0.044002 0-0.068562c-7.130398 0-12.909008-5.777587-12.909008-12.904914 0-7.130398 5.77861-12.922311 12.909008-12.922311l61.488423-0.00614 0-0.613984-61.180408-70.458725 0.079818-0.090051c-5.339612-4.724605-5.806239-12.894681-1.084705-18.219967 4.742001-5.349845 12.901845-5.833869 18.2302-1.098008l56.019875 66.482157 54.739718-63.691601c5.332449-4.735861 13.492292-4.25593 18.234293 1.093914 4.721535 5.325285 4.253884 13.498432-1.084705 18.219967l0.078795 0.093121-58.077743 68.283176 59.673078 0.00614c7.126304 0 12.904914 5.77861 12.904914 12.909008s-5.77861 12.922311-12.904914 12.922311l0 0.116657-0.00307 0.00307-59.674101-0.00614 0 26.204825L593.036641 596.162842z" p-id="1566"></path><path d="M776.446881 65.284889 247.085468 65.284889c-100.95018 0-182.801373 81.839937-182.801373 182.801373l0 529.361413c0 100.949156 81.852216 182.801373 182.801373 182.801373l529.361413 0c100.95018 0 182.801373-81.852216 182.801373-182.801373L959.248254 248.086262C959.248254 147.124825 877.397061 65.284889 776.446881 65.284889zM788.484032 285.947568 788.484032 285.947568l-0.00307 257.722736 0 166.634158c0 31.478945-25.51921 56.998155-56.998155 56.998155L307.125913 767.302617c-31.482015 0-57.004295-25.51921-57.004295-56.998155L250.121618 285.944498c0-19.822464 10.139941-37.250392 25.497721-47.466058l1.972934-1.070378c8.636704-5.26798 18.676361-8.464789 29.53364-8.464789l424.353824 0c23.785729 0 44.12394 14.586207 52.6665 35.287691l1.942235 6.251378c1.403976 4.948709 2.391467 10.064216 2.391467 15.465227L788.484032 285.947568l0-0.00307L788.484032 285.947568z" p-id="1567"></path><path d="M737.542826 251.861238 316.142264 251.754814 517.591345 371.501082Z" p-id="1568"></path></svg>