<?xml version="1.0" standalone="no"?><!DOCTYPE svg PUBLIC "-//W3C//DTD SVG 1.1//EN" "http://www.w3.org/Graphics/SVG/1.1/DTD/svg11.dtd"><svg t="1497603883788" class="icon" style="" viewBox="0 0 1024 1024" version="1.1" xmlns="http://www.w3.org/2000/svg" p-id="6242" xmlns:xlink="http://www.w3.org/1999/xlink" width="200" height="200"><defs><style type="text/css"></style></defs><path d="M973.14 51.204c-62.118-62.118-117.366-43.797-117.366-43.797l-487.010 486.622-81.92 243.469 243.364-81.955 486.728-486.975c0 0 18.251-55.247-43.797-117.366zM546.451 602.482l-26.567 26.496-83.047 28.188c-5.849-13.53-13.178-26.884-28.082-41.718-14.869-14.869-28.188-22.198-41.718-28.082l28.188-83.047 26.567-26.496c0 0 43.762-5.003 86.642 37.948 42.951 42.915 37.983 86.712 37.983 86.712zM850.594 906.625h-732.875v-732.875h281.876l112.75-112.75h-394.625c-62.013 0-112.75 50.738-112.75 112.75v732.875c0 62.013 50.738 112.75 112.75 112.75h732.875c62.013 0 112.75-50.738 112.75-112.75v-394.625l-112.75 112.75v281.876z" p-id="6243"></path></svg>