<?xml version="1.0" standalone="no"?><!DOCTYPE svg PUBLIC "-//W3C//DTD SVG 1.1//EN" "http://www.w3.org/Graphics/SVG/1.1/DTD/svg11.dtd"><svg t="1497344049324" class="icon" style="" viewBox="0 0 1024 1024" version="1.1" xmlns="http://www.w3.org/2000/svg" p-id="4459" xmlns:xlink="http://www.w3.org/1999/xlink" width="200" height="200"><defs><style type="text/css"></style></defs><path d="M512.012041 8.428975C233.879962 8.428975 8.428975 233.879962 8.428975 512c0 278.095955 225.450988 503.571025 503.571025 503.571025 278.180245 0 503.546943-225.475071 503.546943-503.571025C1015.558984 233.879962 790.107996 8.428975 512.012041 8.428975L512.012041 8.428975zM808.38683 867.943556c-32.150517-16.111383-139.836689-37.484854-165.894262-53.812982-29.621825-18.700282-20.133208-120.859454-20.133208-120.859454l20.133208-17.616557c0 0 5.117592-46.263029 13.883725-62.940357 19.579304-37.581185 40.30254-100.726246 40.30254-100.726246s20.133208-14.678457 20.133208-40.290499-20.133208-40.290499-20.133208-40.290499 7.549953-71.285042 7.549953-120.859454c0-104.097836-65.336595-161.149953-182.812418-161.149953-117.403575 0-203.078081 48.502728-203.078081 161.149953 0 49.574412 15.750141 120.859454 15.750141 120.859454s-20.133208 14.678457-20.133208 40.290499 20.133208 40.290499 20.133208 40.290499 23.528881 73.091251 40.30254 100.726246c9.789652 16.0873 13.811477 62.940357 13.811477 62.940357l20.121167 17.616557c0 0 9.572907 102.159172-20.121167 120.859454-26.828222 16.833866-141.281656 39.134525-169.277893 55.450611 1.360677 1.312512 69.924365 60.303293 176.105362 90.214111C195.961618 907.945061 48.707432 727.468674 48.707432 512c0-255.891627 207.425024-463.22032 463.30461-463.22032S975.268485 256.180621 975.268485 512C975.268485 655.075823 910.317215 782.991533 808.38683 867.943556L808.38683 867.943556zM433.285419 968.079774c-11.427281-1.926623-22.577611-4.395108-33.739981-7.128504C410.262277 963.853246 421.930386 965.924365 433.285419 968.079774L433.285419 968.079774zM433.285419 968.079774" p-id="4460"></path></svg>