<?xml version="1.0" standalone="no"?><!DOCTYPE svg PUBLIC "-//W3C//DTD SVG 1.1//EN" "http://www.w3.org/Graphics/SVG/1.1/DTD/svg11.dtd"><svg t="1497345714643" class="icon" style="" viewBox="0 0 1025 1024" version="1.1" xmlns="http://www.w3.org/2000/svg" p-id="8379" xmlns:xlink="http://www.w3.org/1999/xlink" width="200.1953125" height="200"><defs><style type="text/css"></style></defs><path d="M511.090281 76.094072c128.416741 0 256.834506-0.146333 385.252271 0.059352 73.505108 0.116657 112.669082 39.463804 112.720248 113.289206 0.145309 214.452233 0.166799 428.900374-0.016373 643.337257-0.064468 71.579245-39.594787 111.63759-110.524233 111.695918-258.093173 0.212848-516.172019 0.212848-774.258029 0.007163-71.031776-0.059352-110.75857-40.065508-110.824061-111.394043-0.198521-214.447117-0.160659-428.89321-0.021489-643.34749C13.467733 115.720581 52.481282 76.28543 125.8288 76.159564 254.245542 75.940576 382.671493 76.094072 511.090281 76.094072zM45.756113 405.751141c-0.731664 10.692526-2.082428 21.404496-2.090615 32.119535-0.146333 130.918725-0.308015 261.841543 0 392.755152 0.13917 57.83829 26.53126 83.633792 85.388762 83.670631 254.349919 0.164752 508.71314 0.149403 763.070222 0.01842 60.991096-0.035816 86.612637-25.490557 86.713944-86.134753 0.23536-129.661082 0.11768-259.335467-0.014326-389.010875-0.013303-10.777461-1.314948-21.547759-2.031263-32.392758-106.064664 0-209.132064 0-318.128501 0 0 97.416703 0 193.183837 0 296.351522-41.22696-33.023114-76.501348-58.666144-108.543112-87.86414-20.210297-18.418488-34.0587-16.531512-53.964052-0.276293-35.95284 29.362748-74.160024 55.964616-118.517277 89.00308 0-105.954147 0-201.423499 0-298.238498C265.934768 405.751141 157.692508 405.751141 45.756113 405.751141zM627.38289 109.620653c-74.832336 0-145.147798 0-215.638245 0 0 176.553065 0 350.35446 0 529.773805 40.48097-29.498848 76.983325-56.093553 113.25953-82.535785 34.593889 27.42256 66.234517 52.474119 102.378715 81.120552C627.38289 457.57239 627.38289 284.748253 627.38289 109.620653zM43.934628 371.195114c114.430192 0 223.302809 0 332.931648 0 0-89.080851 0-175.48064 0-264.646426-90.584088 0-178.753173-1.088798-266.869047 0.524956-36.276205 0.667196-64.386426 28.351722-65.491597 64.475454C42.494837 237.248426 43.934628 303.045991 43.934628 371.195114zM977.289142 373.672538c0.659009-13.300934 1.550309-23.047926 1.550309-32.81129 0.045025-56.07718 1.186012-112.189152-0.700965-168.208003-1.171686-34.917254-27.040866-64.129576-60.954257-65.027016-84.274382-2.238994-168.650071-0.738827-253.471922-0.738827 0 91.056855 0 178.481997 0 266.785136C769.233596 373.672538 871.211175 373.672538 977.289142 373.672538z" p-id="8380"></path></svg>