<?xml version="1.0" standalone="no"?><!DOCTYPE svg PUBLIC "-//W3C//DTD SVG 1.1//EN" "http://www.w3.org/Graphics/SVG/1.1/DTD/svg11.dtd"><svg t="1497345834721" class="icon" style="" viewBox="0 0 1024 1024" version="1.1" xmlns="http://www.w3.org/2000/svg" p-id="9063" xmlns:xlink="http://www.w3.org/1999/xlink" width="200" height="200"><defs><style type="text/css"></style></defs><path d="M840.947265 869.408718 183.052504 869.408718c-60.571564 0-109.588312-49.138377-109.588312-109.588312L73.464191 266.368927c0-60.571564 49.138377-109.588312 109.588312-109.588312L840.947265 156.780615c60.571564 0 109.588312 49.138377 109.588312 109.588312l0 493.451479C950.657207 820.391971 901.51883 869.408718 840.947265 869.408718L840.947265 869.408718zM183.052504 814.675377 840.947265 814.675377c30.285782 0 54.854971-24.569189 54.854971-54.854971L895.802236 376.078869l-767.483074 0 0 383.741537C128.319162 790.106188 152.888351 814.675377 183.052504 814.675377L183.052504 814.675377zM840.947265 211.635586 183.052504 211.635586c-30.285782 0-54.854971 24.569189-54.854971 54.854971l0 54.854971 767.483074 0L895.680607 266.368927C895.802236 236.083145 871.233048 211.635586 840.947265 211.635586L840.947265 211.635586zM210.540804 540.522152 484.572399 540.522152c15.082076 0 27.366671 12.284594 27.366671 27.366671 0 15.082076-12.284594 27.366671-27.366671 27.366671L210.540804 595.255494c-15.203706 0-27.366671-12.284594-27.366671-27.366671C183.052504 552.806747 195.337098 540.522152 210.540804 540.522152L210.540804 540.522152zM210.540804 650.110464 429.839058 650.110464c15.082076 0 27.366671 12.284594 27.366671 27.366671 0 15.082076-12.284594 27.366671-27.366671 27.366671L210.540804 704.843806c-15.203706 0-27.366671-12.284594-27.366671-27.366671C183.052504 662.395059 195.337098 650.110464 210.540804 650.110464L210.540804 650.110464zM594.282341 540.522152l54.854971 0c15.082076 0 27.366671 12.284594 27.366671 27.366671 0 15.082076-12.284594 27.366671-27.366671 27.366671l-54.854971 0c-15.203706 0-27.366671-12.284594-27.366671-27.366671C566.91567 552.806747 579.078635 540.522152 594.282341 540.522152L594.282341 540.522152zM594.282341 540.522152" p-id="9064"></path></svg>