<?xml version="1.0" standalone="no"?><!DOCTYPE svg PUBLIC "-//W3C//DTD SVG 1.1//EN" "http://www.w3.org/Graphics/SVG/1.1/DTD/svg11.dtd"><svg t="1497346020002" class="icon" style="" viewBox="0 0 1024 1024" version="1.1" xmlns="http://www.w3.org/2000/svg" p-id="11465" xmlns:xlink="http://www.w3.org/1999/xlink" width="200" height="200"><defs><style type="text/css"></style></defs><path d="M434.819072 729.578496 283.895808 545.363968 272.013312 555.098112 434.418688 753.327104 783.698944 355.206144 772.153344 345.076736Z" p-id="11466"></path><path d="M886.960128 133.531648 636.567552 133.531648c-4.639744-20.18816-14.852096-38.720512-29.861888-53.730304-21.090304-21.090304-49.13152-32.705536-78.957568-32.705536-29.826048 0-57.868288 11.615232-78.958592 32.705536-15.009792 15.009792-25.22112 33.54112-29.860864 53.730304L168.751104 133.531648l-51.2 0 0 51.2 0 708.967424 0 51.2 51.2 0 718.208 0 51.2 0 0-51.2L938.159104 184.731648l0-51.2L886.960128 133.531648zM335.466496 188.633088l131.931136 0c0 0-0.093184-15.587328-0.110592-26.602496-0.001024-1.155072-0.002048-2.25792-0.002048-3.269632 0-10.13248 2.504704-19.675136 6.909952-28.063744 0.585728-1.115136 1.191936-2.21696 1.8432-3.289088 0.063488-0.104448 0.13312-0.203776 0.196608-0.3072 10.643456-17.28 29.729792-28.804096 51.514368-28.804096 33.391616 0 60.464128 27.071488 60.464128 60.464128 0 0.309248 0 0.626688 0.001024 0.950272-0.003072 10.98752-0.052224 28.92288-0.052224 28.92288l132.083712 0c23.149568 0 41.920512 16.202752 41.920512 36.191232s-18.770944 36.191232-41.920512 36.191232L335.466496 261.016576c-23.150592 0-41.920512-16.202752-41.920512-36.191232S312.315904 188.633088 335.466496 188.633088zM886.960128 893.698048 168.751104 893.698048l0-708.9664L299.42784 184.731648c-1.250304 0.91136-2.468864 1.86368-3.641344 2.875392-11.350016 9.798656-17.601536 23.016448-17.601536 37.218304 0 14.201856 6.250496 27.419648 17.601536 37.218304 10.706944 9.242624 24.798208 14.333952 39.68 14.333952l384.779264 0c14.880768 0 28.973056-5.090304 39.68-14.332928 11.35104-9.798656 17.600512-23.017472 17.600512-37.218304 0-14.200832-6.250496-27.419648-17.600512-37.218304-1.173504-1.012736-2.393088-1.96608-3.644416-2.87744l130.678784 0L886.960128 893.698048z" p-id="11467"></path><path d="M509.508608 185.083904c5.226496 3.536896 11.580416 5.610496 18.348032 5.608448 4.508672 0.001024 8.843264-0.917504 12.772352-2.581504 5.89824-2.496512 10.892288-6.64576 14.42816-11.8784 3.536896-5.226496 5.610496-11.580416 5.608448-18.348032 0.001024-4.508672-0.917504-8.843264-2.581504-12.773376-2.496512-5.897216-6.64576-10.891264-11.8784-14.427136-5.226496-3.536896-11.580416-5.610496-18.348032-5.607424-4.508672-0.001024-8.844288 0.917504-12.773376 2.581504-5.897216 2.496512-10.891264 6.64576-14.427136 11.8784-3.536896 5.226496-5.610496 11.580416-5.607424 18.348032-0.001024 4.508672 0.917504 8.843264 2.581504 12.772352C500.12672 176.553984 504.275968 181.547008 509.508608 185.083904zM511.776768 151.094272c1.317888-3.121152 3.540992-5.80096 6.330368-7.683072 2.794496-1.882112 6.110208-2.972672 9.749504-2.975744 2.429952 0.001024 4.706304 0.488448 6.78912 1.368064 3.121152 1.318912 5.80096 3.540992 7.684096 6.330368 1.882112 2.794496 2.971648 6.110208 2.97472 9.749504-0.001024 2.429952-0.488448 4.70528-1.368064 6.78912-1.318912 3.121152-3.540992 5.80096-6.330368 7.683072-2.794496 1.882112-6.110208 2.972672-9.749504 2.975744-2.429952-0.001024-4.706304-0.488448-6.78912-1.368064-3.121152-1.318912-5.80096-3.540992-7.684096-6.330368-1.882112-2.794496-2.971648-6.110208-2.97472-9.749504C510.409728 155.45344 510.897152 153.177088 511.776768 151.094272z" p-id="11468"></path></svg>