<?xml version="1.0" standalone="no"?><!DOCTYPE svg PUBLIC "-//W3C//DTD SVG 1.1//EN" "http://www.w3.org/Graphics/SVG/1.1/DTD/svg11.dtd"><svg t="1497349244847" class="icon" style="" viewBox="0 0 1024 1024" version="1.1" xmlns="http://www.w3.org/2000/svg" p-id="13499" xmlns:xlink="http://www.w3.org/1999/xlink" width="200" height="200"><defs><style type="text/css"></style></defs><path d="M98.816 438.784C43.52 438.784 0 392.704 0 339.456S46.08 240.64 98.816 240.64s98.816 40.96 98.816 96.768-43.008 101.376-98.816 101.376zM519.168 233.472c-55.296 0-98.816-46.08-98.816-98.816 0-55.296 46.08-98.816 98.816-98.816s98.816 46.08 98.816 98.816c0.512 55.296-45.568 98.816-98.816 98.816zM925.184 438.784c-55.296 0-98.816-46.08-98.816-98.816s46.08-98.816 98.816-98.816c53.248 0 98.816 46.08 98.816 98.816s-43.52 98.816-98.816 98.816z" fill="#2c2c2c" p-id="13500"></path><path d="M816.128 875.52h-599.04c-16.896 0-31.232-12.288-36.352-29.184L111.104 496.64c-2.56-12.288 2.56-26.624 12.288-33.792 9.728-9.728 21.504-12.288 33.792-7.168l193.024 60.416 135.168-236.544c7.168-12.288 19.456-19.456 31.232-19.456 12.288 0 24.064 7.168 31.232 19.456l135.168 236.544L876.544 455.68c12.288-4.608 26.624 0 33.792 7.168 9.728 9.728 14.336 21.504 12.288 33.792l-70.144 350.208c-2.56 16.896-16.896 28.672-36.352 28.672z" fill="#2c2c2c" p-id="13501"></path><path d="M801.792 989.184H234.496c-19.456 0-36.352-16.896-36.352-36.352s16.896-36.352 36.352-36.352h567.296c19.456 0 36.352 16.896 36.352 36.352s-16.896 36.352-36.352 36.352z" fill="#2c2c2c" p-id="13502"></path></svg>